<svg xmlns="http://www.w3.org/2000/svg" viewBox="0 0 100 100">
  <defs>
    <radialGradient id="bg" cx="35%" cy="35%" r="75%">
      <stop offset="0%" stop-color="#FFD66E"/>
      <stop offset="55%" stop-color="#FF9F68"/>
      <stop offset="100%" stop-color="#FF6B9D"/>
    </radialGradient>
  </defs>
  <circle cx="50" cy="50" r="49" fill="url(#bg)"/>
  <g stroke="#FFFFFF" stroke-linecap="round" stroke-linejoin="round" fill="none">
    <path d="M 22 52 L 50 26 L 67 41 L 67 32 L 73 32 L 73 47 L 78 52" stroke-width="5"/>
    <line x1="28" y1="55" x2="28" y2="80" stroke-width="5"/>
    <line x1="72" y1="55" x2="72" y2="80" stroke-width="5"/>
    <path d="M 18 84 Q 50 79 82 84" stroke-width="3"/>
  </g>
  <g fill="#FFFFFF">
    <circle cx="48" cy="54" r="9"/>
    <path d="M 50 45 Q 53 41 56 43 Q 54 47 51 48 Z"/>
    <path d="M 41 62 Q 40 72 44 78 L 60 78 Q 63 74 61 70 Q 58 67 53 67 Q 47 66 44 64 Q 41 62 41 62 Z"/>
    <ellipse cx="60" cy="79" rx="6" ry="2.5"/>
  </g>
</svg>
